<svg width="24" height="24" viewBox="0 0 24 24" fill="none" xmlns="http://www.w3.org/2000/svg">
<path d="M4.55426 19.5522C4.42641 19.6981 4.29856 19.8438 4.1531 20.01C4.18375 20.0924 4.20342 20.2209 4.13595 20.3483C4.0918 20.4316 4.03166 20.4981 3.94704 20.5406C3.79677 20.6161 3.59733 20.5756 3.47932 20.4462C3.34072 20.2941 3.34827 20.0944 3.44181 19.9373C3.5413 19.7701 3.72655 19.7287 3.98225 19.8088C4.14121 19.6487 4.30291 19.4861 4.48245 19.3052C4.42275 19.3019 4.39119 19.2997 4.35985 19.2985C4.20639 19.2923 4.0527 19.2869 3.89923 19.2802C3.87019 19.2791 3.84091 19.277 3.81255 19.2708C3.72953 19.2525 3.68127 19.2043 3.68058 19.143C3.6799 19.081 3.72541 19.0312 3.80958 19.0131C3.85784 19.0028 3.90838 18.9998 3.95801 19.0005C4.19061 19.0035 4.42321 19.0058 4.65558 19.0149C4.73243 19.0179 4.78869 18.9982 4.8429 18.9424C5.02815 18.7517 5.21798 18.5657 5.40598 18.3775C5.42313 18.3603 5.43846 18.3416 5.46956 18.3073C5.34423 18.2897 5.23514 18.2794 5.12833 18.2581C4.79487 18.1918 4.46186 18.1227 4.12932 18.0511C4.07374 18.0392 4.01908 18.0141 3.96945 17.9853C3.92416 17.959 3.89877 17.9134 3.91616 17.8576C3.93285 17.8037 3.97425 17.7737 4.02891 17.7767C4.1531 17.7835 4.27821 17.7881 4.40079 17.808C4.78183 17.8702 5.16172 17.9386 5.54184 18.0061C5.60268 18.0168 5.66214 18.036 5.71291 18.0488C5.986 17.7735 6.2545 17.5031 6.5301 17.225C6.46034 17.2033 6.38349 17.1761 6.30505 17.1553C5.77901 17.0146 5.24406 16.9188 4.70704 16.8312C4.60572 16.8147 4.50761 16.7783 4.40903 16.7482C4.38204 16.7399 4.35688 16.7223 4.33401 16.7047C4.29376 16.6738 4.24848 16.632 4.2718 16.5817C4.28987 16.5425 4.33767 16.4993 4.37838 16.4918C4.47101 16.4751 4.56936 16.4641 4.66176 16.4774C5.29483 16.5679 5.9247 16.6763 6.54016 16.8552C6.59094 16.8698 6.64331 16.879 6.70963 16.8941C6.71421 16.8394 6.71741 16.7957 6.72176 16.752C6.74531 16.5082 6.76361 16.264 6.79449 16.0211C6.81439 15.864 6.85464 15.8351 7.00696 15.8072C7.38662 15.7375 7.7656 15.6643 8.14548 15.5964C8.20564 15.5856 8.23971 15.5483 8.27699 15.5104C8.72001 15.0603 9.16211 14.6097 9.60558 14.1601C9.91777 13.8435 10.2316 13.5288 10.5447 13.2132C10.6364 13.1208 10.6378 13.1132 10.568 13.003C10.5481 12.9714 10.5243 12.9424 10.5026 12.912C10.4907 12.8951 10.4793 12.8777 10.4674 12.8601C10.42 12.8772 10.385 12.8882 10.3516 12.9026C10.1035 13.0083 9.85625 13.1167 9.60695 13.2198C9.5269 13.253 9.46469 13.2983 9.41963 13.3735C9.21334 13.7193 9.00407 14.0633 8.79594 14.408C8.77238 14.4469 8.75226 14.4892 8.72298 14.5233C8.6594 14.5974 8.56265 14.612 8.48718 14.5644C8.41559 14.5194 8.38632 14.4334 8.41628 14.3458C8.4268 14.3147 8.44464 14.2859 8.46111 14.2573C8.58827 14.0382 8.71589 13.8195 8.84305 13.6004C8.85037 13.5878 8.85403 13.573 8.86638 13.5416C8.81652 13.5604 8.78268 13.572 8.74974 13.586C8.50136 13.6912 8.2539 13.7987 8.00437 13.9014C7.93461 13.93 7.88956 13.9695 7.86097 14.0423C7.75004 14.324 7.63226 14.6031 7.51653 14.883C7.50715 14.9059 7.49732 14.9294 7.48337 14.9496C7.43717 15.0166 7.3546 15.0404 7.28599 15.0088C7.2231 14.9798 7.18627 14.907 7.20228 14.8313C7.20983 14.7952 7.22584 14.7607 7.24093 14.7266C7.31 14.5711 7.38022 14.416 7.44952 14.2605C7.46621 14.2232 7.48108 14.1852 7.50395 14.1301C7.46232 14.1418 7.43557 14.1463 7.41132 14.1564C7.21966 14.2362 7.02915 14.3183 6.83703 14.397C6.78008 14.4203 6.74326 14.4542 6.7165 14.5123C6.62455 14.7122 6.52666 14.9091 6.42901 15.1062C6.41094 15.1428 6.38807 15.1794 6.35948 15.2078C6.30985 15.257 6.24147 15.265 6.18703 15.2373C6.12985 15.208 6.09166 15.1378 6.10881 15.069C6.12139 15.0175 6.14678 14.9686 6.17216 14.9214C6.22111 14.8306 6.27394 14.7419 6.32266 14.6566C6.31534 14.6445 6.31397 14.6406 6.31122 14.6383C6.30848 14.6358 6.30345 14.6328 6.3007 14.6337C6.26548 14.6458 6.23003 14.657 6.19572 14.6717C5.85974 14.8139 5.524 14.9567 5.18665 15.0998C5.14983 15.4736 4.96068 15.7002 4.65649 15.7318C4.39119 15.7592 4.1316 15.5891 4.04858 15.3331C3.95961 15.0587 4.07305 14.7822 4.33516 14.634C4.5984 14.4851 4.85959 14.5514 5.10568 14.8336C5.47231 14.6751 5.84053 14.5157 6.22911 14.3478C6.1868 14.3259 6.16142 14.3106 6.1342 14.2991C6.02327 14.2527 5.91029 14.2108 5.80142 14.1601C5.75362 14.1379 5.71086 14.1015 5.67197 14.0649C5.63698 14.0318 5.62532 13.9869 5.64796 13.9391C5.67083 13.8911 5.71406 13.8746 5.7614 13.879C5.80623 13.8831 5.85151 13.895 5.89405 13.9103C6.10492 13.9858 6.31625 14.0608 6.52507 14.1422C6.59185 14.1683 6.64834 14.1717 6.71467 14.1418C6.93789 14.0411 7.16363 13.9458 7.388 13.8479C7.40995 13.8383 7.43077 13.8255 7.4685 13.8056C7.35804 13.7532 7.26198 13.7074 7.16592 13.6622C7.03464 13.6002 6.90107 13.5423 6.77253 13.4748C6.70003 13.4369 6.63233 13.387 6.56875 13.3349C6.53307 13.3056 6.51409 13.2596 6.54542 13.2121C6.57561 13.1668 6.61998 13.1626 6.66687 13.178C6.797 13.2207 6.92806 13.2608 7.05591 13.3097C7.30406 13.4046 7.55061 13.5034 7.79647 13.6036C7.8493 13.6251 7.89504 13.6329 7.94994 13.6089C8.28431 13.462 8.62029 13.3182 8.95536 13.1729C8.97319 13.1652 8.9892 13.1537 9.02328 13.1341C8.97319 13.1171 8.94072 13.1046 8.90709 13.0952C8.62715 13.0176 8.34698 12.9415 8.06704 12.8635C7.99911 12.8445 7.93233 12.8214 7.86623 12.7972C7.83146 12.7844 7.79785 12.767 7.76583 12.7478C7.71299 12.7162 7.67411 12.6741 7.68921 12.6057C7.7011 12.552 7.74707 12.5236 7.82575 12.5218C7.85891 12.5211 7.8923 12.5236 7.92501 12.528C8.39615 12.5895 8.85518 12.7039 9.29979 12.869C9.44182 12.9218 9.56235 12.9289 9.69935 12.8562C9.85281 12.7748 10.0173 12.7135 10.1792 12.6487C10.2554 12.6183 10.2901 12.5669 10.2942 12.4889C10.3015 12.353 10.2782 12.2249 10.2039 12.1069C10.1762 12.1042 10.1517 12.0998 10.1273 12.0996C9.01802 12.0916 7.909 12.0845 6.79975 12.0756C6.72656 12.0749 6.66366 12.0893 6.60145 12.1305C6.31717 12.3178 6.02922 12.4994 5.74493 12.6865C5.55807 12.8097 5.47734 12.7619 5.3687 12.6629C5.16675 12.4783 4.95748 12.3018 4.73998 12.1119C4.70613 12.1376 4.66496 12.1634 4.63019 12.1959C4.18764 12.611 3.75515 13.0359 3.35673 13.4945C3.28057 13.5823 3.19961 13.6663 3.1175 13.7484C3.08273 13.7831 3.04133 13.8129 2.99856 13.8376C2.95236 13.8641 2.90228 13.865 2.86066 13.8245C2.82269 13.7875 2.82246 13.7395 2.84373 13.6974C2.87346 13.6384 2.90617 13.5789 2.94802 13.5284C3.14654 13.2884 3.34164 13.0451 3.55159 12.8155C3.75034 12.598 3.96625 12.3962 4.1746 12.1872C4.20296 12.1586 4.23064 12.1293 4.27272 12.0854C4.22675 12.0813 4.19999 12.077 4.17346 12.077C3.87019 12.0765 3.56691 12.0781 3.26364 12.076C3.20166 12.0756 3.15203 12.0831 3.11727 12.1435C3.09966 12.1742 3.06444 12.1954 3.03516 12.2185C2.77717 12.4216 2.52445 12.6307 2.29551 12.8672C2.22918 12.9358 2.15782 12.9996 2.08486 13.0613C1.95861 13.1681 1.88726 13.1885 1.83488 13.1396C1.78045 13.0883 1.80378 13.0106 1.91905 12.8825C1.98286 12.8116 2.04964 12.7427 2.12077 12.6792C2.30649 12.5131 2.4954 12.3505 2.68295 12.1863C2.71359 12.1593 2.74355 12.1316 2.78746 12.0921C2.74378 12.0861 2.71725 12.0797 2.69095 12.0795C2.45835 12.0788 2.22575 12.0802 1.99292 12.0786C1.91081 12.0781 1.84289 12.0973 1.77793 12.1549C1.60389 12.3091 1.4232 12.4557 1.24389 12.6037C1.21233 12.6298 1.17711 12.6595 1.13915 12.6682C1.10392 12.6762 1.05612 12.6686 1.02616 12.6492C0.988192 12.6245 0.989338 12.5762 1.01198 12.5364C1.03028 12.5042 1.0504 12.4717 1.07556 12.4447C1.16316 12.3505 1.25327 12.2586 1.34224 12.1655C1.36351 12.1431 1.38341 12.1195 1.41794 12.0811H0.803164C0.666395 12.3171 0.500813 12.4054 0.293372 12.351C0.118179 12.305 -0.00509824 12.1495 0.000162122 11.9644C0.00542248 11.7725 0.0998767 11.6371 0.316695 11.5651C0.506297 11.502 0.664336 11.598 0.808195 11.8453C1.03531 11.8453 1.26219 11.8453 1.50943 11.8453C1.47855 11.808 1.46025 11.7833 1.43944 11.7611C1.33469 11.6486 1.22743 11.5386 1.12519 11.4238C1.0902 11.3844 1.05566 11.3368 1.04308 11.2874C1.03371 11.2504 1.04674 11.1902 1.07327 11.1658C1.0998 11.1413 1.16247 11.1315 1.19655 11.1456C1.25579 11.1703 1.31159 11.2122 1.35756 11.2582C1.5188 11.4199 1.67821 11.5839 1.83214 11.7524C1.89297 11.819 1.95496 11.8494 2.04736 11.8476C2.32936 11.8416 2.61136 11.8453 2.92012 11.8453C2.88673 11.7977 2.86614 11.7652 2.84259 11.7353C2.5894 11.4155 2.36023 11.0798 2.16011 10.7241C2.13564 10.6809 2.11139 10.6365 2.09493 10.5899C2.06862 10.5153 2.08807 10.4549 2.14022 10.4247C2.18916 10.3964 2.24107 10.4055 2.29665 10.4613C2.34331 10.5082 2.38859 10.5581 2.42679 10.6121C2.70193 11.0022 2.97615 11.3931 3.24786 11.7858C3.27394 11.8233 3.29475 11.8476 3.34369 11.8473C3.69271 11.8457 4.04149 11.8469 4.3905 11.8464C4.40125 11.8464 4.41223 11.8398 4.43579 11.8322C4.40514 11.7698 4.38182 11.7078 4.34682 11.6538C4.08014 11.2428 3.81209 10.833 3.54267 10.4238C3.48572 10.3372 3.41505 10.2589 3.36313 10.1695C3.31762 10.0917 3.28422 10.0057 3.25564 9.91975C3.23871 9.86898 3.23986 9.80951 3.29155 9.77201C3.34415 9.73404 3.39996 9.75554 3.44181 9.7887C3.51591 9.84771 3.59459 9.90717 3.65039 9.98219C4.02433 10.4858 4.38776 10.9972 4.69194 11.5475C4.72191 11.6017 4.75484 11.6545 4.79372 11.7206C4.83306 11.6877 4.86645 11.6593 4.9003 11.6314C5.08556 11.4777 5.26761 11.3197 5.45744 11.1717C5.59833 11.0619 5.64499 11.0695 5.79067 11.1701C6.10469 11.3874 6.41917 11.6047 6.7364 11.8174C6.77345 11.8423 6.82994 11.8466 6.87728 11.8466C7.38822 11.845 7.89916 11.8402 8.41011 11.8368C8.96679 11.8329 9.52347 11.8295 10.0802 11.8261C10.1296 11.8258 10.1787 11.8261 10.2437 11.8261C10.2652 11.7197 10.2853 11.6209 10.3063 11.5171C10.1451 11.4523 9.99919 11.3938 9.8535 11.3352C9.70713 11.2765 9.56052 11.2184 9.41483 11.158C9.3556 11.1333 9.29934 11.128 9.23392 11.1395C8.82842 11.2111 8.43252 11.3206 8.0373 11.4334C7.99339 11.4459 7.94971 11.4617 7.90488 11.467C7.81111 11.478 7.72695 11.4208 7.70247 11.3362C7.678 11.2522 7.72077 11.1635 7.80882 11.1214C7.83467 11.1091 7.86349 11.1022 7.89139 11.0949C8.14 11.029 8.38906 10.9634 8.63767 10.8975C8.64865 10.8945 8.65871 10.8877 8.68387 10.8753C8.65162 10.857 8.63013 10.8415 8.60634 10.8319C8.34081 10.7244 8.07459 10.6192 7.80974 10.5101C7.7521 10.4863 7.70247 10.4838 7.64392 10.5089C7.36169 10.6297 7.07786 10.7465 6.79449 10.8643C6.76773 10.8755 6.74051 10.8874 6.71238 10.8925C6.64354 10.905 6.57653 10.8707 6.54519 10.8106C6.5134 10.7497 6.52324 10.6782 6.58019 10.6297C6.61404 10.6009 6.65657 10.58 6.69843 10.5638C6.86058 10.5 7.02412 10.4396 7.18696 10.3774C7.22492 10.363 7.26198 10.3465 7.31938 10.3227C7.27524 10.3012 7.24871 10.2866 7.22104 10.2754C7.03669 10.2002 6.85098 10.1274 6.66778 10.0494C6.60306 10.022 6.54657 10.0165 6.47772 10.0423C6.27577 10.118 6.07085 10.186 5.86638 10.2544C5.82407 10.2685 5.77764 10.277 5.73327 10.2765C5.66991 10.2759 5.62211 10.2409 5.6013 10.18C5.58072 10.1199 5.59307 10.0602 5.64339 10.0218C5.68501 9.9902 5.73556 9.96687 5.78587 9.95086C5.89565 9.91609 6.00772 9.88819 6.12047 9.83262C5.74653 9.68006 5.37259 9.52751 4.9879 9.37062C4.86302 9.4987 4.70384 9.5808 4.51058 9.57211C4.37449 9.56594 4.25099 9.5202 4.14807 9.42642C3.94978 9.24597 3.899 8.95505 4.02571 8.72039C4.16111 8.46927 4.42916 8.36063 4.7171 8.44022C5.00322 8.51935 5.14136 8.75081 5.12261 9.12773C5.49381 9.27502 5.86707 9.42322 6.26136 9.57966C6.2433 9.52957 6.23277 9.49664 6.21974 9.46462C6.17445 9.35323 6.12414 9.24368 6.08457 9.13024C6.06742 9.08107 6.06101 9.02275 6.06901 8.97152C6.07427 8.93767 6.10812 8.89307 6.139 8.88278C6.17056 8.87226 6.22408 8.88689 6.2497 8.91068C6.28789 8.9459 6.31488 8.99622 6.33775 9.04447C6.43221 9.24322 6.52667 9.4422 6.61335 9.64415C6.64217 9.71117 6.68128 9.75073 6.74829 9.77635C6.99621 9.87104 7.24253 9.96984 7.50464 10.0732C7.49709 10.0339 7.49549 10.0073 7.48702 9.98311C7.41475 9.77978 7.33745 9.57806 7.26952 9.37313C7.24116 9.28759 7.22767 9.19634 7.21532 9.10668C7.20891 9.0598 7.22767 9.01337 7.28164 9.00033C7.33356 8.98776 7.37061 9.0152 7.3928 9.0598C7.4701 9.21601 7.54924 9.37153 7.62105 9.53026C7.71505 9.73838 7.80402 9.9488 7.89185 10.1594C7.9138 10.212 7.94079 10.2502 7.99682 10.2722C8.34103 10.4065 8.68387 10.5437 9.0274 10.6795C9.04181 10.6852 9.05713 10.688 9.08938 10.6969C9.06994 10.6546 9.05896 10.6258 9.04386 10.599C8.90321 10.3495 8.76072 10.1009 8.62143 9.85068C8.57501 9.76743 8.53361 9.68121 8.4945 9.5943C8.4794 9.56113 8.47277 9.52271 8.46911 9.48589C8.46431 9.43672 8.48146 9.38823 8.53064 9.37588C8.56586 9.36696 8.61617 9.37153 8.64476 9.39166C8.69096 9.42437 8.72824 9.47217 8.76346 9.51791C9.04112 9.8779 9.27395 10.2665 9.46264 10.6788C9.53331 10.8335 9.62136 10.9359 9.7874 10.9853C9.94178 11.0313 10.0914 11.0976 10.2377 11.166C10.3352 11.2115 10.4104 11.1864 10.4722 11.1164C10.5291 11.0516 10.5797 10.9789 10.6201 10.9028C10.6682 10.8124 10.6622 10.8058 10.5884 10.731C10.2204 10.3586 9.85167 9.98722 9.4839 9.61465C9.0784 9.20366 8.67335 8.79198 8.26922 8.37938C8.21547 8.32449 8.15875 8.28767 8.08008 8.27189C7.74662 8.20465 7.41498 8.12872 7.08175 8.05919C6.90656 8.02282 6.85372 7.96381 6.84343 7.78245C6.82857 7.51714 6.8121 7.25184 6.79563 6.98676C6.79494 6.97509 6.78854 6.96366 6.78145 6.9417C6.73983 6.9369 6.69592 6.92867 6.65155 6.92684C6.02007 6.90099 5.38906 6.90328 4.7585 6.94811C4.67159 6.95428 4.58422 6.95634 4.49708 6.95657C4.45591 6.95657 4.41406 6.95154 4.37358 6.9433C4.28804 6.92569 4.24642 6.8875 4.24687 6.82918C4.24756 6.75759 4.29833 6.72969 4.35688 6.71253C4.39668 6.70087 4.43739 6.69195 4.4781 6.68532C4.86851 6.62265 5.26235 6.59955 5.65733 6.59475C5.88993 6.59177 6.12253 6.59681 6.35513 6.59795C6.38715 6.59795 6.41918 6.59795 6.47407 6.59795C6.44548 6.56364 6.43221 6.54512 6.4162 6.52911C6.19893 6.3116 5.98028 6.09547 5.76437 5.87659C5.72069 5.83222 5.6786 5.81415 5.61274 5.81621C5.50982 5.81941 5.40644 5.79769 5.30283 5.7922C4.96708 5.77413 4.63111 5.75972 4.29536 5.74165C4.22949 5.73799 4.16339 5.7277 4.09867 5.71352C4.04767 5.70231 4.00444 5.6735 4.00512 5.61289C4.00581 5.55205 4.05041 5.52461 4.10187 5.51614C4.1794 5.50334 4.25854 5.48916 4.33653 5.49236C4.64757 5.50517 4.95839 5.52484 5.26944 5.5413C5.30969 5.54336 5.35017 5.54153 5.40621 5.54153C5.38311 5.51065 5.36962 5.4871 5.35109 5.46857C5.18413 5.3007 5.0158 5.1342 4.8493 4.96564C4.80058 4.91624 4.74844 4.88925 4.67594 4.88399C4.43579 4.8666 4.19633 4.84213 3.95664 4.81835C3.91593 4.81423 3.8711 4.80851 3.83748 4.78816C3.81004 4.77169 3.78145 4.73235 3.78099 4.70285C3.78076 4.67357 3.80935 4.63469 3.83634 4.61708C3.86515 4.5981 3.90678 4.59352 3.94337 4.59192C4.08014 4.58598 4.21714 4.58392 4.35414 4.58049C4.38135 4.5798 4.4088 4.58049 4.4669 4.58049C4.30908 4.42016 4.17094 4.28019 4.0344 4.14159C3.72587 4.19991 3.54976 4.13793 3.45485 3.93941C3.38075 3.7848 3.42168 3.59154 3.55502 3.47352C3.70483 3.3411 3.89511 3.34041 4.06345 3.44242C4.23063 3.54351 4.26883 3.72854 4.18741 3.97943C4.34933 4.1393 4.51264 4.30054 4.67594 4.46156C4.68577 4.45767 4.69561 4.45378 4.70544 4.44989C4.70544 4.33508 4.70338 4.2205 4.70613 4.10568C4.70819 4.01854 4.71459 3.93163 4.72305 3.84472C4.72625 3.81247 4.73128 3.77359 4.75095 3.75118C4.77863 3.71962 4.82071 3.68119 4.85662 3.68142C4.89298 3.68142 4.9465 3.71756 4.96114 3.75141C4.98652 3.81019 4.99773 3.87971 4.9975 3.94444C4.99682 4.17269 4.99316 4.40141 4.9815 4.62943C4.97669 4.72503 5.00414 4.79273 5.07321 4.8586C5.25069 5.02762 5.42085 5.20418 5.59444 5.37732C5.62005 5.40293 5.64796 5.42626 5.69118 5.46583C5.70262 5.38486 5.71314 5.32174 5.72069 5.25816C5.76666 4.86981 5.84373 4.48763 5.95008 4.1114C5.96358 4.06383 5.98165 4.01626 6.00635 3.97372C6.03562 3.92294 6.08365 3.89733 6.14403 3.91631C6.19846 3.93346 6.22569 3.97715 6.22248 4.03066C6.21585 4.15074 6.21036 4.27173 6.19115 4.3902C6.13031 4.763 6.0633 5.13488 5.99857 5.50722C5.9972 5.51546 5.99743 5.52461 5.99377 5.5317C5.91601 5.68562 5.98714 5.78648 6.10035 5.891C6.29567 6.071 6.47795 6.2654 6.66595 6.45318C6.69454 6.48177 6.72519 6.50829 6.76841 6.54855C6.80547 6.42116 6.84069 6.31092 6.86927 6.19908C6.99781 5.69568 7.08747 5.18474 7.17164 4.67243C7.1881 4.57179 7.22812 4.47391 7.2654 4.37808C7.27936 4.34194 7.31183 4.30878 7.34362 4.2843C7.38914 4.24931 7.44357 4.25777 7.47262 4.3074C7.49709 4.3488 7.5115 4.39843 7.51973 4.44623C7.54718 4.60519 7.5083 4.76048 7.4836 4.91601C7.3928 5.48618 7.28667 6.05339 7.12292 6.60801C7.11468 6.63546 7.11057 6.66428 7.10165 6.70567C7.23339 6.71574 7.35941 6.72351 7.4852 6.73563C7.64209 6.7505 7.79944 6.76514 7.95565 6.78687C8.13062 6.81111 8.16333 6.85113 8.19352 7.02061C8.26053 7.39661 8.3296 7.77215 8.40301 8.14678C8.4117 8.19092 8.44807 8.23438 8.48192 8.26777C8.85357 8.63645 9.22752 9.00262 9.60009 9.37039C9.99325 9.75851 10.3855 10.1475 10.7784 10.5361C10.8077 10.5649 10.8381 10.5926 10.8802 10.6324C10.9664 10.5766 11.0515 10.5215 11.1425 10.4625C11.1043 10.3737 11.0718 10.298 11.0394 10.2223C10.9497 10.0124 10.858 9.80311 10.7713 9.59178C10.7416 9.51928 10.6997 9.46393 10.6323 9.42345C10.2871 9.21624 9.94293 9.00742 9.59849 8.79884C9.55595 8.77299 9.50998 8.75104 9.4727 8.71925C9.39997 8.65727 9.38625 8.55732 9.43359 8.48276C9.47842 8.41232 9.56624 8.38281 9.65361 8.413C9.68448 8.42375 9.71307 8.44228 9.74166 8.45874C9.96077 8.58591 10.1794 8.71353 10.3985 8.84069C10.4113 8.84801 10.4264 8.85121 10.4568 8.86219C10.4376 8.81302 10.4255 8.7794 10.4113 8.74646C10.3057 8.49808 10.1977 8.25062 10.0952 8.00109C10.0664 7.93111 10.0273 7.88605 9.95482 7.85723C9.67328 7.74562 9.39425 7.62807 9.11454 7.51234C9.08801 7.50136 9.06033 7.48992 9.03769 7.47277C8.97914 7.42863 8.95924 7.35864 8.9828 7.29575C9.00842 7.22736 9.0752 7.18482 9.15159 7.19763C9.19596 7.20518 9.23919 7.22302 9.28058 7.24131C9.43245 7.30833 9.58339 7.37785 9.7348 7.44555C9.77162 7.46202 9.80959 7.47574 9.86585 7.49839C9.85327 7.45402 9.8487 7.42748 9.83841 7.40324C9.75836 7.21181 9.67579 7.02129 9.59711 6.82895C9.57539 6.77566 9.54406 6.74067 9.491 6.71597C9.29179 6.62311 9.09441 6.52591 8.89657 6.42985C8.87416 6.4191 8.85152 6.40812 8.83116 6.39417C8.75294 6.33973 8.72458 6.26037 8.75637 6.19061C8.79068 6.11583 8.87507 6.08404 8.96976 6.1156C9.00864 6.12841 9.04478 6.15059 9.08092 6.17072C9.14976 6.20914 9.21723 6.25008 9.2863 6.28827C9.30643 6.29948 9.3293 6.30566 9.37824 6.32464C9.21174 5.92851 9.05507 5.55617 8.89818 5.18291C8.52401 5.14243 8.29872 4.95786 8.26716 4.66488C8.23743 4.38723 8.40325 4.12787 8.66375 4.04416C8.93797 3.95633 9.21608 4.07046 9.36291 4.33142C9.51135 4.59535 9.44685 4.84991 9.16348 5.10263C9.32198 5.46903 9.48116 5.83726 9.65201 6.23224C9.67625 6.17621 9.69157 6.14167 9.70644 6.10714C9.75355 5.99667 9.79724 5.88437 9.84938 5.77619C9.87043 5.73273 9.90359 5.68928 9.9427 5.66275C9.97175 5.64285 10.0266 5.63462 10.0564 5.64926C10.0854 5.66366 10.1129 5.71306 10.1133 5.74737C10.114 5.80363 10.0982 5.86241 10.079 5.91662C10.0051 6.12383 9.92555 6.32898 9.85213 6.53643C9.83795 6.57645 9.82514 6.62951 9.83955 6.66496C9.94659 6.92547 10.0609 7.18299 10.1806 7.45905C10.2039 7.42337 10.2206 7.40324 10.2316 7.38014C10.3208 7.1926 10.4077 7.00414 10.498 6.81728C10.5305 6.75027 10.5678 6.68532 10.6085 6.62288C10.6281 6.59246 10.6567 6.5625 10.6885 6.54672C10.7146 6.53368 10.7613 6.52888 10.7807 6.54397C10.8049 6.56273 10.8205 6.60504 10.8219 6.63775C10.8232 6.6732 10.8061 6.71025 10.7928 6.74501C10.662 7.09037 10.5323 7.4364 10.3974 7.78016C10.3713 7.84648 10.3672 7.90138 10.3969 7.96793C10.5348 8.27921 10.6677 8.59254 10.8031 8.90519C10.8171 8.93744 10.8351 8.96809 10.8619 9.02023C10.8818 8.961 10.8962 8.92394 10.9067 8.88575C10.9824 8.61381 11.0558 8.34142 11.1331 8.06994C11.1581 7.98234 11.1887 7.89611 11.223 7.81172C11.2381 7.77444 11.2635 7.73762 11.2935 7.71109C11.3593 7.65231 11.4458 7.67953 11.4661 7.76712C11.4771 7.81401 11.4728 7.86615 11.4671 7.91487C11.4103 8.39562 11.2875 8.86105 11.1222 9.31458C11.0753 9.44335 11.0666 9.5529 11.1322 9.67869C11.2125 9.83284 11.2768 9.99614 11.3385 10.159C11.3776 10.2621 11.4504 10.2976 11.5496 10.2962C11.5949 10.2955 11.6402 10.2861 11.685 10.2781C11.8824 10.2422 11.8957 10.2253 11.897 10.0323C11.9034 8.96877 11.9098 7.90526 11.9185 6.84176C11.9194 6.73929 11.9039 6.64964 11.844 6.5609C11.6628 6.29262 11.4895 6.01885 11.3145 5.74646C11.2878 5.70483 11.2626 5.66092 11.2457 5.61472C11.2146 5.53101 11.2484 5.46217 11.3051 5.39927C11.4911 5.19229 11.6756 4.98416 11.8607 4.77626C11.8687 4.76734 11.8737 4.75591 11.8865 4.73532C11.8579 4.69919 11.8303 4.65871 11.7973 4.62349C11.377 4.17453 10.9447 3.73746 10.4797 3.33378C10.3951 3.26037 10.3137 3.1826 10.2364 3.10187C10.1998 3.06367 10.1668 3.01702 10.1485 2.96807C10.1165 2.88208 10.1925 2.80294 10.2784 2.83519C10.3471 2.86103 10.4145 2.90015 10.4706 2.94772C10.756 3.18878 11.0417 3.42984 11.3186 3.68051C11.4908 3.83626 11.6484 4.00848 11.8108 4.17498C11.8362 4.20105 11.852 4.23628 11.8721 4.26738C11.8831 4.26052 11.8943 4.25366 11.9053 4.2468C11.9092 4.22072 11.9165 4.19465 11.9167 4.16858C11.9172 3.86119 11.9163 3.5538 11.9167 3.24641C11.9167 3.19427 11.9112 3.15127 11.8593 3.11948C11.8255 3.09867 11.8007 3.06139 11.7751 3.02914C11.5716 2.77138 11.3623 2.51911 11.1263 2.28971C11.0549 2.22041 10.9893 2.14471 10.9243 2.06924C10.8948 2.03493 10.8704 1.99536 10.8486 1.95557C10.8253 1.9128 10.8223 1.86728 10.8605 1.82932C10.8999 1.79021 10.9467 1.7957 10.9858 1.82406C11.0561 1.87506 11.1299 1.92492 11.1883 1.98804C11.3914 2.20738 11.5887 2.43197 11.7879 2.65497C11.8206 2.69156 11.8522 2.72953 11.8968 2.78167C11.9046 2.73936 11.9133 2.71375 11.9133 2.68813C11.9142 2.4473 11.913 2.20623 11.9142 1.96517C11.9146 1.89587 11.8957 1.83961 11.8481 1.78518C11.6951 1.60998 11.5473 1.43045 11.3994 1.25114C11.3705 1.21614 11.3468 1.17658 11.3248 1.13678C11.3017 1.09538 11.3086 1.04941 11.3458 1.02494C11.3731 1.0071 11.4167 1.0007 11.449 1.00802C11.4831 1.01579 11.5155 1.04187 11.5425 1.06657C11.6345 1.1505 11.725 1.23604 11.8136 1.32364C11.8396 1.34925 11.857 1.38356 11.8785 1.41398C11.8895 1.40803 11.9002 1.40186 11.9112 1.39591V0.796457C11.8053 0.746369 11.7015 0.673641 11.6576 0.541217C11.6283 0.452249 11.6203 0.36328 11.6496 0.272253C11.7051 0.0993468 11.8625 -0.0065469 12.0514 0.000314444C12.2428 0.00717578 12.3879 0.144173 12.4357 0.334232C12.4832 0.523377 12.3849 0.679358 12.1482 0.80332V1.50203C12.1829 1.4771 12.2058 1.4643 12.2246 1.44691C12.3371 1.34216 12.4475 1.23536 12.5612 1.13198C12.5976 1.09881 12.6399 1.07091 12.6829 1.04667C12.7295 1.02037 12.7796 1.02082 12.8224 1.05788C12.8704 1.09927 12.873 1.15531 12.8485 1.20608C12.8254 1.25365 12.7929 1.29939 12.7554 1.33667C12.5871 1.50318 12.4183 1.66922 12.2438 1.82932C12.1772 1.89038 12.1477 1.95282 12.1495 2.04477C12.1555 2.32677 12.1516 2.609 12.1516 2.91867C12.2021 2.88231 12.2374 2.85898 12.2703 2.83267C12.5903 2.57972 12.9262 2.35101 13.2823 2.15203C13.3292 2.12596 13.3789 2.10309 13.4294 2.08593C13.4811 2.06832 13.5305 2.08296 13.5625 2.12801C13.5984 2.17879 13.5874 2.23116 13.5497 2.27691C13.5314 2.29909 13.5099 2.31945 13.4873 2.33751C13.3965 2.41002 13.307 2.4848 13.2126 2.55227C12.9356 2.75057 12.657 2.94634 12.3778 3.14144C12.3067 3.19129 12.231 3.23498 12.153 3.28415V4.43411C12.1973 4.41513 12.2348 4.40392 12.2675 4.38448C12.4606 4.27035 12.657 4.16126 12.8434 4.0373C13.1479 3.83512 13.444 3.62059 13.7466 3.41589C13.8317 3.35825 13.9269 3.31548 14.0181 3.26746C14.0362 3.25808 14.0572 3.25213 14.0776 3.25007C14.1313 3.24436 14.1883 3.23635 14.2242 3.29101C14.2596 3.34499 14.2388 3.40079 14.205 3.4415C14.1393 3.52064 14.0728 3.60412 13.9911 3.6645C13.4804 4.04301 12.9612 4.40941 12.4025 4.7152C12.3629 4.73693 12.3252 4.76185 12.2774 4.7909C12.3014 4.82155 12.3197 4.84694 12.3403 4.87072C12.4487 4.99674 12.5589 5.12093 12.6655 5.24832C12.7268 5.32151 12.7851 5.39744 12.8398 5.47566C12.9258 5.59871 12.9235 5.6472 12.8398 5.76864C12.6625 6.0248 12.4857 6.28118 12.3089 6.53757C12.2641 6.60252 12.2143 6.66473 12.1784 6.73426C12.1569 6.77543 12.1502 6.82826 12.1502 6.87583C12.1502 7.28706 12.1532 7.69828 12.1557 8.10973C12.1598 8.77437 12.1644 9.439 12.1687 10.1036C12.1697 10.2397 12.177 10.25 12.3083 10.2759C12.3606 10.2861 12.4142 10.2919 12.472 10.3003C12.4892 10.2665 12.5059 10.2388 12.5178 10.2088C12.6246 9.94308 12.7298 9.67663 12.838 9.41133C12.8624 9.35118 12.8675 9.29468 12.856 9.23019C12.7851 8.8288 12.6781 8.43633 12.5653 8.04524C12.5528 8.00132 12.5372 7.95764 12.531 7.91281C12.5171 7.80966 12.5708 7.7255 12.6618 7.69988C12.752 7.6745 12.8402 7.72069 12.88 7.81904C12.897 7.86112 12.9052 7.90664 12.9171 7.95055C12.9814 8.19001 13.0456 8.42924 13.1156 8.68974C13.1403 8.64446 13.1582 8.61816 13.1698 8.58957C13.2757 8.32792 13.3791 8.06513 13.487 7.80417C13.5113 7.74562 13.5101 7.69599 13.4854 7.63813C13.3651 7.35567 13.2485 7.07184 13.1305 6.78824C13.1225 6.76902 13.1133 6.75004 13.1085 6.73015C13.0884 6.6501 13.1225 6.57096 13.189 6.53963C13.2567 6.50784 13.3409 6.52956 13.3857 6.59932C13.4145 6.64415 13.4331 6.69584 13.4523 6.74615C13.5225 6.92775 13.5911 7.10981 13.6673 7.30993C13.6901 7.27333 13.7075 7.25298 13.7171 7.22942C13.7958 7.0373 13.872 6.84427 13.9518 6.65261C13.9753 6.59589 13.9801 6.54603 13.958 6.48565C13.8834 6.28324 13.8146 6.07855 13.7464 5.87385C13.7311 5.82765 13.7212 5.77733 13.7208 5.72885C13.7203 5.66526 13.7569 5.61815 13.8173 5.59688C13.8779 5.57538 13.9378 5.59071 13.9747 5.64079C14.008 5.68608 14.0316 5.7412 14.049 5.79517C14.0826 5.90038 14.1089 6.00787 14.1382 6.11445C14.1471 6.11445 14.156 6.11468 14.1647 6.11491C14.317 5.74097 14.4694 5.36725 14.6253 4.98508C14.5002 4.85951 14.4179 4.70536 14.4243 4.5153C14.4286 4.38745 14.4675 4.27081 14.5489 4.16995C14.7159 3.96319 15.0096 3.89458 15.247 4.00711C15.5013 4.12764 15.6241 4.37968 15.566 4.67037C15.5345 4.82818 15.4505 4.95283 15.3133 5.04043C15.1765 5.12756 15.0263 5.139 14.8717 5.11064C14.7196 5.4951 14.572 5.86767 14.4152 6.2638C14.4787 6.23727 14.5185 6.22035 14.5588 6.20411C14.6587 6.16363 14.7582 6.12269 14.8588 6.08381C14.8856 6.07352 14.9149 6.06757 14.9435 6.06391C15.0398 6.05156 15.0935 6.07214 15.1164 6.12703C15.1411 6.18673 15.1143 6.25031 15.0244 6.29468C14.8051 6.40332 14.5837 6.5083 14.3598 6.6071C14.2896 6.63797 14.2459 6.67617 14.2187 6.74913C14.1256 6.99705 14.0254 7.24246 13.9211 7.50616C13.9676 7.4945 13.9982 7.48947 14.0273 7.47895C14.2226 7.40919 14.4165 7.33486 14.6132 7.26899C14.6988 7.2404 14.7896 7.22462 14.879 7.21067C14.9307 7.20266 14.9812 7.2205 14.9963 7.27951C15.0114 7.33898 14.9725 7.37282 14.9254 7.39638C14.7955 7.46134 14.6665 7.52881 14.5341 7.58804C14.3029 7.69142 14.0696 7.78953 13.8367 7.88902C13.7905 7.90892 13.7496 7.92836 13.7288 7.98211C13.5916 8.3341 13.4509 8.68471 13.3123 9.03624C13.3084 9.04608 13.3118 9.05888 13.3118 9.08015C13.3425 9.06643 13.3686 9.05728 13.3921 9.04379C13.6417 8.90313 13.8903 8.76064 14.1405 8.62136C14.2274 8.5731 14.3173 8.52965 14.4078 8.48848C14.441 8.47338 14.4801 8.46492 14.5165 8.46469C14.616 8.46378 14.6676 8.55709 14.6086 8.63737C14.5727 8.68654 14.5217 8.72611 14.4728 8.76407C14.1094 9.04425 13.7162 9.27707 13.3004 9.46782C13.1577 9.53323 13.0655 9.61557 13.018 9.76697C12.9672 9.9289 12.8974 10.0853 12.8286 10.2409C12.7908 10.3264 12.8071 10.3946 12.8679 10.4559C12.9057 10.4938 12.9477 10.5288 12.9919 10.5592C13.1668 10.6798 13.1714 10.6777 13.3235 10.5277C14.0863 9.77475 14.8492 9.02183 15.6134 8.27029C15.6717 8.21288 15.7097 8.15296 15.7263 8.07039C15.7929 7.74082 15.8679 7.41331 15.9374 7.08419C15.977 6.89619 16.0321 6.84862 16.2213 6.83741C16.4944 6.82117 16.7674 6.80105 17.0529 6.78161C17.0581 6.74821 17.0668 6.71299 17.0684 6.67754C17.095 6.0463 17.0968 5.41505 17.0494 4.7845C17.0414 4.677 17.0414 4.56859 17.0428 4.46064C17.0433 4.41582 17.0533 4.37007 17.0657 4.32639C17.0789 4.2795 17.1107 4.24657 17.1631 4.24337C17.2226 4.23971 17.2571 4.27584 17.2738 4.32616C17.2921 4.38105 17.3063 4.43777 17.3152 4.49495C17.3783 4.90228 17.4008 5.31259 17.401 5.72427C17.401 5.94452 17.3978 6.16454 17.3962 6.38479C17.3962 6.40446 17.398 6.42436 17.3998 6.46187C17.4325 6.43785 17.4559 6.42482 17.4742 6.40652C17.6919 6.18947 17.9083 5.97105 18.1267 5.75469C18.1676 5.71421 18.18 5.67556 18.1802 5.61449C18.1807 5.46995 18.2054 5.3254 18.2147 5.18063C18.2273 4.98599 18.2349 4.7909 18.2442 4.59604C18.2506 4.46339 18.2525 4.33028 18.2637 4.19785C18.268 4.14571 18.2829 4.09013 18.309 4.04507C18.3465 3.97989 18.421 3.98332 18.4592 4.04828C18.4775 4.07938 18.4894 4.11803 18.4912 4.15394C18.4986 4.28636 18.5095 4.41947 18.5029 4.55167C18.4899 4.81698 18.4661 5.08182 18.4471 5.3469C18.446 5.36314 18.4471 5.37983 18.4471 5.4098C18.4764 5.38898 18.5004 5.37617 18.5189 5.35765C18.69 5.18794 18.859 5.01618 19.0308 4.84739C19.0841 4.79525 19.1095 4.73853 19.1149 4.66237C19.1326 4.4181 19.1568 4.1743 19.1826 3.93072C19.1943 3.82139 19.2314 3.77451 19.2917 3.77176C19.3569 3.76902 19.4001 3.82437 19.4065 3.93666C19.4139 4.0652 19.4134 4.19397 19.4159 4.32273C19.4166 4.35841 19.4159 4.39409 19.4386 4.44212C19.5783 4.30443 19.7178 4.16698 19.8564 4.03044C19.796 3.73128 19.8537 3.55769 20.046 3.45706C20.1997 3.37655 20.4051 3.41475 20.5233 3.55152C20.6535 3.70201 20.6608 3.86599 20.5625 4.04873C20.4685 4.22324 20.2837 4.26464 20.038 4.19236C19.8669 4.35315 19.7014 4.50867 19.5188 4.68021C19.5696 4.68752 19.5957 4.69347 19.6218 4.69461C19.7878 4.70193 19.9539 4.70628 20.1197 4.71588C20.1643 4.7184 20.2118 4.72801 20.2509 4.74836C20.3431 4.79616 20.3456 4.90914 20.2532 4.95557C20.2036 4.9805 20.1419 4.99102 20.0854 4.99125C19.8404 4.99194 19.5952 4.98896 19.3503 4.98119C19.27 4.97867 19.2099 4.99697 19.152 5.05689C18.9537 5.26296 18.7495 5.46354 18.5306 5.68333C18.5926 5.69454 18.6378 5.70552 18.6836 5.71055C19.0847 5.75469 19.4793 5.8336 19.8679 5.94132C19.9232 5.95664 19.9779 5.97906 20.0284 6.0065C20.0764 6.03235 20.0963 6.07969 20.0831 6.13412C20.0693 6.19016 20.0268 6.2192 19.9728 6.21669C19.8569 6.21143 19.74 6.20708 19.6259 6.18833C19.2327 6.12406 18.8403 6.05453 18.4478 5.98546C18.3911 5.9754 18.3357 5.9571 18.2895 5.94498C18.0167 6.21989 17.7484 6.49023 17.4732 6.76743C17.5382 6.78847 17.6107 6.81568 17.685 6.83558C18.2111 6.97647 18.746 7.07298 19.2828 7.16081C19.388 7.17796 19.49 7.21593 19.5929 7.24657C19.6163 7.25344 19.638 7.26807 19.6581 7.28271C19.7032 7.31519 19.7528 7.35773 19.7283 7.41445C19.7116 7.45333 19.6613 7.49496 19.6199 7.5025C19.5273 7.51897 19.429 7.53018 19.3366 7.51691C18.6911 7.42451 18.0496 7.31061 17.422 7.12947C17.3831 7.11827 17.3429 7.11095 17.2903 7.09883C17.2839 7.1878 17.2793 7.26579 17.2722 7.34355C17.2544 7.53795 17.2361 7.73213 17.2166 7.9263C17.2134 7.95924 17.2043 7.99149 17.1979 8.02396C17.1794 8.11705 17.1206 8.16508 17.0289 8.182C16.6492 8.25199 16.2705 8.32632 15.8903 8.39265C15.819 8.405 15.7698 8.4361 15.7218 8.48482C15.0665 9.15151 14.4106 9.81729 13.7539 10.4826C13.6288 10.6095 13.5003 10.7331 13.3617 10.8696C13.4209 10.9618 13.4756 11.0468 13.5309 11.1331C13.5728 11.1189 13.6005 11.1116 13.6266 11.1006C13.8939 10.9867 14.1601 10.8703 14.4286 10.7591C14.4947 10.7317 14.5389 10.688 14.5739 10.6299C14.7822 10.2852 14.9906 9.94079 15.1987 9.59613C15.2202 9.56068 15.2376 9.52225 15.2623 9.48909C15.3259 9.40378 15.4219 9.37931 15.5034 9.42391C15.591 9.47171 15.6207 9.57051 15.5756 9.67206C15.5624 9.70225 15.5432 9.72992 15.5265 9.75851C15.4034 9.9703 15.2801 10.1821 15.1575 10.3943C15.1502 10.4071 15.147 10.422 15.1365 10.451C15.1694 10.4401 15.1882 10.435 15.2058 10.4275C15.4771 10.3122 15.7474 10.1949 16.0198 10.0826C16.0795 10.0579 16.1117 10.0202 16.1351 9.96275C16.2503 9.67823 16.3679 9.39463 16.4857 9.11103C16.4983 9.08084 16.5133 9.04996 16.5339 9.02503C16.5758 8.97495 16.6451 8.95939 16.7039 8.98089C16.7626 9.00239 16.8034 9.05751 16.7988 9.12681C16.7958 9.17118 16.7823 9.2167 16.7645 9.25763C16.6968 9.41384 16.6252 9.56822 16.5554 9.72352C16.5369 9.76469 16.52 9.80677 16.4951 9.86532C16.5355 9.85388 16.5621 9.84931 16.5863 9.83925C16.7777 9.7592 16.968 9.67617 17.1606 9.59864C17.223 9.57348 17.2601 9.53483 17.2882 9.47377C17.3783 9.27776 17.4737 9.08404 17.5698 8.89078C17.5897 8.85076 17.6162 8.81142 17.6484 8.781C17.694 8.73823 17.752 8.72862 17.8106 8.75607C17.8698 8.78374 17.9009 8.83658 17.8909 8.89764C17.881 8.95711 17.8575 9.01634 17.8298 9.07078C17.7816 9.16546 17.7255 9.25626 17.6727 9.34889C17.6786 9.35552 17.6846 9.36193 17.6905 9.36856C18.0629 9.21189 18.4354 9.05499 18.8089 8.89787C18.8654 8.49991 19.0566 8.28081 19.3663 8.26068C19.6337 8.2433 19.8857 8.42238 19.9591 8.68151C20.0376 8.95894 19.9143 9.23179 19.6478 9.37062C19.3883 9.50579 19.1245 9.43374 18.897 9.15975C18.5297 9.31893 18.1598 9.47903 17.79 9.63912C17.7902 9.64736 17.7905 9.65582 17.7909 9.66405C17.8433 9.68418 17.8964 9.70248 17.9476 9.72466C18.0464 9.76766 18.1445 9.81226 18.2422 9.85754C18.2607 9.86624 18.2772 9.87996 18.293 9.89322C18.3577 9.94697 18.3785 10.0023 18.3542 10.0542C18.3302 10.1057 18.2724 10.1297 18.1921 10.1071C18.0805 10.0757 17.9702 10.0385 17.8609 9.99934C17.7241 9.95017 17.5901 9.89391 17.4527 9.8468C17.4129 9.83307 17.3598 9.8253 17.3234 9.84039C17.0705 9.94537 16.8203 10.0568 16.5694 10.1668C16.5625 10.1697 16.5579 10.1784 16.5442 10.1928C16.6316 10.2349 16.7155 10.2761 16.8002 10.3161C16.939 10.3817 17.0796 10.4437 17.2169 10.5126C17.2832 10.5457 17.3475 10.586 17.4058 10.6315C17.4687 10.6809 17.4845 10.7404 17.4552 10.782C17.4163 10.8373 17.3628 10.8266 17.3093 10.8081C17.1487 10.752 16.9868 10.6994 16.8278 10.639C16.6183 10.5595 16.4109 10.4748 16.2032 10.3904C16.1556 10.3712 16.1131 10.3577 16.061 10.3806C15.7149 10.532 15.3677 10.6807 15.021 10.8309C15.0105 10.8355 15.0027 10.8463 14.9849 10.8616C15.0247 10.8753 15.0571 10.8883 15.0905 10.8977C15.3705 10.9753 15.6509 11.0514 15.9304 11.1301C16.0102 11.1525 16.0886 11.18 16.1657 11.2104C16.2037 11.2252 16.2446 11.2456 16.2702 11.2753C16.2945 11.3035 16.313 11.3478 16.3116 11.3844C16.3096 11.4345 16.2654 11.464 16.2169 11.4679C16.1637 11.472 16.1088 11.4702 16.0557 11.4631C15.5848 11.4004 15.1262 11.2842 14.6818 11.1187C14.5512 11.0699 14.4415 11.0681 14.3168 11.1312C14.1578 11.2117 13.9911 11.2774 13.8253 11.3433C13.7441 11.3755 13.705 11.4311 13.7048 11.5127C13.7045 11.5743 13.7116 11.6369 13.7233 11.6975C13.7592 11.883 13.7741 11.8931 13.9559 11.8942C15.0318 11.9015 16.1078 11.9086 17.1837 11.9182C17.2699 11.9189 17.3433 11.9018 17.4165 11.853C17.693 11.6694 17.973 11.4905 18.2529 11.3117C18.2978 11.2831 18.3467 11.2582 18.397 11.2408C18.4716 11.2149 18.5349 11.2461 18.5905 11.2955C18.7922 11.4748 18.9937 11.6543 19.1957 11.8334C19.2137 11.8494 19.2334 11.8636 19.2606 11.8851C19.3009 11.8531 19.3414 11.8254 19.3766 11.7922C19.8258 11.3718 20.2624 10.9393 20.6661 10.4746C20.745 10.3838 20.8298 10.2978 20.9172 10.2152C20.952 10.1825 20.9991 10.1556 21.0453 10.1439C21.1251 10.124 21.1894 10.1903 21.1631 10.2683C21.1411 10.3337 21.1054 10.3984 21.0617 10.452C20.8646 10.693 20.6697 10.9366 20.46 11.1662C20.2585 11.3869 20.0403 11.5923 19.8281 11.8032C19.7992 11.832 19.7638 11.8542 19.7315 11.8796C19.7366 11.8883 19.7418 11.8972 19.7469 11.9059C19.7691 11.9093 19.7912 11.9159 19.8134 11.9159C20.1249 11.9166 20.4367 11.9157 20.7482 11.9166C20.8001 11.9166 20.8429 11.9121 20.8756 11.8608C20.8991 11.8238 20.9403 11.7977 20.9746 11.7675C21.2177 11.5537 21.4611 11.3401 21.704 11.1262C21.7975 11.0441 21.8871 10.9572 21.9848 10.8801C22.0653 10.8168 22.1223 10.8142 22.1653 10.8529C22.2117 10.8948 22.2083 10.9547 22.1374 11.0409C22.0665 11.1273 21.9908 11.2113 21.9082 11.2863C21.7147 11.4624 21.5159 11.6328 21.3193 11.8052C21.2884 11.8322 21.257 11.8585 21.2115 11.8974C21.249 11.9054 21.2696 11.9137 21.2904 11.9137C21.5315 11.9146 21.7723 11.9127 22.0134 11.9148C22.0918 11.9155 22.1559 11.8956 22.2169 11.8421C22.3887 11.6916 22.5653 11.5466 22.7412 11.4009C22.7762 11.3718 22.8141 11.3451 22.8548 11.3252C22.8983 11.3039 22.9518 11.3016 22.9772 11.3478C22.9941 11.3789 22.9978 11.4304 22.9838 11.4624C22.963 11.5104 22.9246 11.5523 22.888 11.5916C22.7924 11.6941 22.6936 11.7936 22.5815 11.9093H23.2054C23.2482 11.794 23.3321 11.695 23.4678 11.6513C23.557 11.6225 23.6471 11.6195 23.7372 11.6497C23.9039 11.7058 24.0105 11.8734 23.9979 12.0603C23.9847 12.2556 23.8458 12.3859 23.6661 12.4344C23.4824 12.4841 23.3237 12.383 23.1951 12.1492H22.4839C22.5797 12.251 22.6616 12.337 22.7421 12.4239C22.7986 12.4847 22.8567 12.5444 22.9081 12.6096C22.9834 12.7045 22.9882 12.7809 22.9303 12.8322C22.8761 12.8802 22.7997 12.8758 22.7174 12.8006C22.5918 12.686 22.4731 12.5634 22.3535 12.4422C22.2778 12.3654 22.2085 12.2817 22.1305 12.2073C22.1003 12.1785 22.0541 12.1506 22.0148 12.1501C21.712 12.1453 21.4089 12.1476 21.08 12.1476C21.1155 12.1977 21.1383 12.2339 21.1649 12.2672C21.4153 12.5838 21.6415 12.9166 21.84 13.2683C21.8624 13.3079 21.8849 13.3484 21.9009 13.3909C21.9318 13.4728 21.916 13.5354 21.8618 13.5682C21.8103 13.599 21.757 13.5876 21.6966 13.5245C21.6479 13.4735 21.6006 13.4204 21.5596 13.363C21.2751 12.9644 20.9924 12.5641 20.6995 12.1508H19.5566C19.6037 12.2407 19.6391 12.3237 19.6874 12.3985C19.9287 12.7716 20.1725 13.143 20.4177 13.5135C20.484 13.6139 20.5643 13.7056 20.6267 13.8081C20.6759 13.8886 20.7129 13.9778 20.7459 14.0665C20.7665 14.1221 20.7633 14.1859 20.7059 14.2236C20.6535 14.2579 20.5963 14.2371 20.5551 14.2026C20.4765 14.1363 20.3934 14.0695 20.3328 13.9878C19.9518 13.4739 19.5833 12.9509 19.2762 12.388C19.2565 12.3521 19.2332 12.3185 19.2057 12.2748C19.1691 12.3052 19.1385 12.3308 19.1078 12.3562C18.9194 12.5127 18.7341 12.6732 18.5411 12.8239C18.4034 12.9314 18.3536 12.9232 18.2074 12.8221C17.8934 12.6046 17.5789 12.3875 17.2619 12.1744C17.2278 12.1515 17.1764 12.1465 17.1329 12.1465C16.7132 12.1469 16.2938 12.1497 15.8741 12.1527C15.2177 12.1572 14.5613 12.1625 13.9051 12.1675C13.8637 12.1678 13.8226 12.1675 13.7809 12.1675C13.7135 12.2611 13.7121 12.3649 13.7002 12.4717C13.7329 12.4882 13.761 12.5046 13.791 12.5168C14.0568 12.6238 14.323 12.7292 14.5883 12.8372C14.648 12.8614 14.7047 12.8658 14.7694 12.8543C15.1749 12.7825 15.5708 12.673 15.966 12.5602C16.0058 12.5488 16.0456 12.5346 16.0863 12.5287C16.1806 12.5149 16.2677 12.5673 16.2947 12.6494C16.3244 12.7402 16.2828 12.8312 16.1886 12.8745C16.1588 12.8882 16.1257 12.8951 16.0937 12.9035C15.8531 12.9673 15.6122 13.0307 15.3716 13.095C15.3572 13.0988 15.3439 13.1075 15.3135 13.1215C15.3611 13.1439 15.3922 13.1604 15.4247 13.1736C15.6786 13.2765 15.9333 13.3776 16.1863 13.4826C16.2478 13.5082 16.3009 13.5098 16.3635 13.4831C16.6455 13.3619 16.9294 13.2452 17.2127 13.1274C17.2395 13.1165 17.2674 13.1057 17.2955 13.1014C17.3584 13.0917 17.4245 13.1261 17.4536 13.1789C17.4851 13.2361 17.4762 13.3166 17.4241 13.3619C17.3905 13.3909 17.3481 13.4124 17.3065 13.4289C17.1444 13.4929 16.9808 13.5531 16.818 13.6153C16.7766 13.631 16.7361 13.6496 16.6732 13.6759C16.9273 13.779 17.1569 13.8739 17.3889 13.9641C17.4195 13.9759 17.4625 13.9707 17.4954 13.9597C17.704 13.89 17.9108 13.8152 18.1191 13.745C18.1656 13.7294 18.2156 13.7175 18.2639 13.7173C18.3325 13.7168 18.3865 13.7623 18.4039 13.8216C18.4224 13.8847 18.4023 13.9419 18.3529 13.9773C18.3071 14.01 18.2513 14.0318 18.1969 14.0487C18.0915 14.0818 17.9837 14.1084 17.8772 14.1605C18.2527 14.3138 18.6282 14.4668 19.0143 14.6243C19.1344 14.4983 19.2904 14.4174 19.4793 14.4222C19.6106 14.4254 19.732 14.4661 19.8352 14.5525C20.0428 14.7266 20.1046 15.0264 19.9813 15.2647C19.8489 15.5209 19.5746 15.6346 19.2828 15.5543C18.999 15.4761 18.8645 15.2492 18.8791 14.8668C18.5079 14.7197 18.1347 14.5717 17.7392 14.4151C17.7582 14.4658 17.7694 14.4981 17.782 14.5299C17.8291 14.6495 17.8792 14.7677 17.922 14.889C17.9366 14.9306 17.9432 14.9811 17.9336 15.023C17.9256 15.0578 17.8939 15.1017 17.8627 15.1122C17.8314 15.1227 17.7774 15.1085 17.752 15.085C17.7139 15.0497 17.6869 14.9994 17.664 14.9512C17.5698 14.7524 17.476 14.5532 17.3884 14.3515C17.3598 14.2856 17.3214 14.244 17.2539 14.2184C17.0058 14.1242 16.7597 14.0251 16.4967 13.9215C16.5047 13.9613 16.5069 13.9878 16.5154 14.0121C16.5845 14.2079 16.6556 14.403 16.7242 14.5987C16.7462 14.6612 16.7656 14.725 16.7807 14.7895C16.7892 14.8252 16.7965 14.8666 16.7862 14.8999C16.7755 14.9352 16.7494 14.9752 16.7185 14.9921C16.6773 15.015 16.6396 14.9841 16.6154 14.9464C16.5975 14.9185 16.5808 14.8894 16.5673 14.8592C16.4187 14.5301 16.2677 14.2019 16.125 13.8703C16.0895 13.7879 16.0456 13.7363 15.9596 13.7038C15.6452 13.5849 15.3341 13.4575 15.0215 13.3333C14.9915 13.3214 14.9611 13.3109 14.9119 13.2928C14.9314 13.3378 14.941 13.3676 14.9561 13.3941C15.0988 13.6473 15.2431 13.8996 15.3853 14.1532C15.4258 14.2255 15.4631 14.2998 15.4972 14.3755C15.5139 14.4128 15.5237 14.4544 15.5299 14.4951C15.5377 14.5477 15.5233 14.5942 15.4713 14.6214C15.4231 14.6468 15.3801 14.6291 15.3458 14.5974C15.3064 14.561 15.2712 14.5194 15.2383 14.4768C14.9577 14.1136 14.7251 13.7205 14.5329 13.3051C14.4657 13.1601 14.3834 13.0618 14.2265 13.0138C14.0643 12.9641 13.9086 12.8925 13.7526 12.8248C13.6725 12.7901 13.6023 12.8008 13.5488 12.8619C13.4864 12.9328 13.428 13.0096 13.3818 13.0918C13.3329 13.1789 13.3409 13.1906 13.4132 13.2637C13.8045 13.6596 14.1967 14.0546 14.5878 14.4508C14.973 14.8409 15.3577 15.232 15.7414 15.6236C15.7892 15.6723 15.8389 15.7052 15.9093 15.7194C16.2469 15.7876 16.5826 15.8642 16.9198 15.9344C17.0931 15.9705 17.1494 16.0305 17.1604 16.2121C17.1757 16.4691 17.1894 16.7262 17.2043 16.983C17.2054 17.0034 17.2107 17.0233 17.2155 17.0528C17.2734 17.059 17.3301 17.0688 17.3873 17.0706C18.0103 17.0899 18.6333 17.0905 19.2556 17.0464C19.3343 17.0409 19.4132 17.0375 19.4921 17.0379C19.5415 17.0382 19.5918 17.0441 19.6403 17.0542C19.7135 17.0695 19.7572 17.1127 19.7565 17.1649C19.7556 17.2291 19.7114 17.2602 19.6574 17.2781C19.6183 17.2911 19.5774 17.3005 19.5367 17.3071C19.1463 17.3707 18.7527 17.3952 18.3579 17.4002C18.1294 17.4032 17.9009 17.3991 17.6725 17.3982C17.6329 17.3982 17.5933 17.3982 17.5275 17.3982C17.5727 17.448 17.5981 17.4784 17.626 17.5066C17.8227 17.7035 18.021 17.8988 18.2159 18.0976C18.2708 18.1536 18.322 18.1863 18.4091 18.1781C18.5024 18.1694 18.5985 18.1964 18.6939 18.2014C19.0173 18.219 19.3407 18.2334 19.6641 18.2506C19.7302 18.254 19.7967 18.2593 19.8617 18.2714C19.9532 18.2885 19.9948 18.3249 19.9973 18.3775C20 18.434 19.9555 18.4715 19.8546 18.4891C19.8018 18.4983 19.7471 18.5042 19.6936 18.5019C19.4116 18.4903 19.1296 18.4758 18.8476 18.4614C18.7666 18.4573 18.6859 18.4507 18.5786 18.4436C18.609 18.4809 18.6198 18.4967 18.6333 18.5101C18.8092 18.6867 18.9859 18.8624 19.1616 19.0394C19.2044 19.0826 19.2517 19.1046 19.3144 19.1094C19.5545 19.1279 19.7942 19.1512 20.0337 19.1748C20.0785 19.1791 20.127 19.186 20.1652 19.207C20.1929 19.2224 20.2221 19.2633 20.2219 19.2928C20.2219 19.3221 20.1913 19.3587 20.164 19.3781C20.1393 19.3957 20.1016 19.3998 20.0694 19.4014C19.9326 19.4081 19.7956 19.4117 19.6588 19.4161C19.6277 19.417 19.5966 19.4161 19.5358 19.4161C19.6922 19.5748 19.8278 19.7123 19.9712 19.8577C19.9996 19.8497 20.0341 19.8387 20.0694 19.83C20.2834 19.7779 20.5092 19.9073 20.5695 20.1168C20.6279 20.3183 20.503 20.5455 20.2914 20.6058C20.1476 20.647 20.0085 20.6209 19.8951 20.5201C19.7803 20.4181 19.7439 20.2854 19.7777 20.1351C19.7869 20.0951 19.8006 20.0565 19.8127 20.0153C19.6504 19.8545 19.4896 19.6953 19.3089 19.5165C19.3027 19.6553 19.2975 19.7651 19.2929 19.8749C19.2897 19.9538 19.2913 20.0329 19.2833 20.1114C19.2782 20.1598 19.2679 20.2118 19.2451 20.2536C19.1973 20.3408 19.0918 20.3433 19.0459 20.2557C19.0184 20.2033 19.007 20.1367 19.0068 20.0766C19.0054 19.8399 19.0061 19.6029 19.0166 19.3664C19.0212 19.2658 18.9917 19.1956 18.9189 19.127C18.7469 18.9644 18.583 18.7933 18.4153 18.6261C18.3865 18.5973 18.3558 18.5703 18.3103 18.5278C18.2941 18.643 18.2801 18.7398 18.2671 18.8365C18.2195 19.191 18.1484 19.5405 18.0503 19.8845C18.04 19.9204 18.0286 19.9563 18.0126 19.9897C17.9776 20.0629 17.9252 20.0944 17.8678 20.0821C17.8085 20.0693 17.7726 20.0206 17.7761 19.938C17.78 19.8426 17.787 19.7468 17.803 19.653C17.8815 19.191 17.9631 18.7297 18.0443 18.2647C17.7811 18.0054 17.5121 17.7405 17.2338 17.4663C17.221 17.5002 17.2013 17.539 17.1915 17.5802C17.1155 17.8993 17.0355 18.2172 16.9689 18.5383C16.9108 18.8187 16.8733 19.1032 16.8175 19.3841C16.7992 19.4758 16.7565 19.5638 16.7164 19.6496C16.6931 19.6994 16.6483 19.7379 16.5863 19.7267C16.5239 19.7155 16.4969 19.6633 16.4916 19.6087C16.4822 19.5103 16.4681 19.4085 16.4825 19.3122C16.5774 18.6714 16.6888 18.0333 16.8706 17.4098C16.8809 17.3746 16.8871 17.338 16.8983 17.2884C16.756 17.2774 16.6215 17.2692 16.4875 17.2564C16.3347 17.2417 16.1817 17.2266 16.0296 17.2049C15.875 17.1827 15.84 17.1452 15.8117 16.9952C15.7403 16.6157 15.6678 16.2368 15.6008 15.8566C15.59 15.7963 15.5557 15.7613 15.5178 15.724C15.1566 15.3683 14.7948 15.0136 14.4341 14.6575C14.0291 14.2577 13.6252 13.8568 13.2204 13.4565C13.1913 13.4277 13.1609 13.4005 13.119 13.3612C13.0319 13.4186 12.9477 13.4742 12.8585 13.5332C12.9086 13.6503 12.9528 13.7527 12.9965 13.8552C13.0731 14.0347 13.1531 14.2129 13.2249 14.394C13.2574 14.4757 13.3064 14.5349 13.3809 14.5795C13.7228 14.7842 14.0636 14.9905 14.4046 15.1966C14.4472 15.2222 14.4929 15.2446 14.53 15.2769C14.6011 15.3388 14.6144 15.4276 14.5718 15.5024C14.53 15.576 14.4449 15.6103 14.3561 15.5826C14.3173 15.5705 14.2814 15.5474 14.2457 15.5268C14.03 15.4022 13.8148 15.2766 13.5991 15.152C13.5893 15.1463 13.5769 15.1444 13.5527 15.1367C13.5646 15.1755 13.571 15.2062 13.5831 15.2348C13.6915 15.4909 13.8027 15.7459 13.9083 16.0032C13.936 16.0705 13.9781 16.1089 14.0444 16.1354C14.3255 16.2482 14.6048 16.3648 14.8845 16.481C14.9147 16.4936 14.9458 16.5082 14.9707 16.5291C15.026 16.575 15.0409 16.6487 15.0132 16.7095C14.9862 16.769 14.9181 16.8085 14.849 16.7969C14.8088 16.79 14.7694 16.7738 14.7317 16.7573C14.5723 16.6869 14.4138 16.6141 14.2546 16.5432C14.2185 16.527 14.1805 16.5146 14.1192 16.4915C14.1837 16.6446 14.237 16.7735 14.2926 16.9016C14.342 17.0155 14.3712 17.1493 14.4511 17.236C14.5277 17.3193 14.6569 17.3552 14.7649 17.408C14.873 17.4608 14.9844 17.507 15.0921 17.5601C15.136 17.5816 15.1797 17.6088 15.214 17.6431C15.2605 17.6895 15.2664 17.7661 15.2367 17.8167C15.2037 17.8727 15.1489 17.8993 15.0889 17.8892C15.0334 17.8798 14.9789 17.8544 14.9281 17.8279C14.8339 17.779 14.7429 17.7241 14.6505 17.6715C14.6436 17.6776 14.6365 17.684 14.6297 17.6902C14.7861 18.0621 14.9423 18.4342 15.1022 18.8146C15.2813 18.8123 15.4466 18.8653 15.5768 19.0044C15.671 19.1053 15.7248 19.2237 15.7346 19.3619C15.7538 19.6336 15.5717 19.8858 15.3035 19.9586C15.0347 20.0315 14.7616 19.9048 14.626 19.6441C14.4911 19.3847 14.564 19.1183 14.8367 18.8939C14.6773 18.5257 14.5169 18.1552 14.3438 17.7549C14.3104 17.8441 14.2903 17.9048 14.2651 17.9631C14.2258 18.0543 14.1855 18.1456 14.1402 18.2341C14.1219 18.27 14.0915 18.3013 14.0618 18.3295C14.0252 18.364 13.974 18.3736 13.936 18.3432C13.9076 18.3205 13.8839 18.2759 13.8823 18.2403C13.8802 18.1925 13.8973 18.1422 13.914 18.0957C13.9913 17.881 14.0725 17.6676 14.1494 17.4526C14.1624 17.416 14.1755 17.3675 14.1622 17.3353C14.0529 17.0709 13.9371 16.8092 13.8164 16.5309C13.7926 16.5716 13.7752 16.5972 13.762 16.6249C13.673 16.8124 13.587 17.0013 13.496 17.188C13.4616 17.2584 13.4198 17.3261 13.3747 17.3904C13.3546 17.4192 13.321 17.4439 13.2881 17.4572C13.2293 17.4807 13.1769 17.4446 13.1767 17.3812C13.1767 17.3449 13.1863 17.3069 13.1993 17.2726C13.329 16.9268 13.4575 16.5805 13.5932 16.237C13.6261 16.1535 13.6298 16.0849 13.5925 16.0014C13.4564 15.6984 13.3281 15.3919 13.1963 15.087C13.1817 15.0534 13.1643 15.0209 13.1405 14.9727C13.1241 15.0168 13.1108 15.0452 13.1026 15.0749C13.02 15.3706 12.9404 15.6675 12.8549 15.9625C12.8286 16.0536 12.7899 16.1416 12.7513 16.2285C12.7305 16.2752 12.6932 16.3097 12.636 16.3113C12.5717 16.3129 12.5242 16.2688 12.5281 16.1874C12.5338 16.0675 12.5477 15.9474 12.5681 15.829C12.6371 15.4269 12.7433 15.0342 12.8855 14.6522C12.9256 14.5448 12.9329 14.4526 12.8791 14.3453C12.7956 14.1786 12.725 14.0048 12.6577 13.8307C12.6221 13.7381 12.5573 13.693 12.4688 13.7006C12.367 13.7093 12.2666 13.7379 12.1667 13.7619C12.1216 13.7729 12.0988 13.8067 12.1038 13.8556C12.1052 13.868 12.1038 13.8806 12.1038 13.8929C12.0962 14.9896 12.0892 16.0863 12.0798 17.1829C12.0791 17.2692 12.0962 17.3424 12.145 17.4158C12.3288 17.6923 12.505 17.974 12.6884 18.251C12.7929 18.4088 12.7771 18.5095 12.666 18.6286C12.4793 18.8287 12.3039 19.0394 12.1139 19.2567C12.1388 19.2896 12.1646 19.3308 12.1973 19.3658C12.6152 19.8113 13.0433 20.2468 13.5051 20.6475C13.5929 20.7236 13.6766 20.8048 13.7583 20.8874C13.7926 20.9221 13.8221 20.9645 13.8441 21.0084C13.8651 21.0504 13.8642 21.098 13.8269 21.1355C13.7899 21.1726 13.7439 21.1772 13.7007 21.1531C13.6355 21.117 13.5678 21.082 13.5115 21.0342C13.2361 20.8007 12.9596 20.5679 12.6925 20.325C12.5146 20.163 12.3515 19.9847 12.1816 19.8138C12.1564 19.7884 12.1294 19.7649 12.0878 19.7258C12.0848 19.7724 12.0814 19.7992 12.0814 19.8262C12.0812 20.1294 12.0823 20.4327 12.0805 20.736C12.08 20.7977 12.0866 20.8473 12.1486 20.8812C12.1793 20.8979 12.1999 20.9345 12.223 20.9638C12.426 21.2218 12.6355 21.474 12.8718 21.7032C12.9432 21.7725 13.0081 21.8484 13.0738 21.9237C13.101 21.9548 13.1245 21.9898 13.1444 22.0259C13.1694 22.0714 13.1817 22.1215 13.1394 22.164C13.0962 22.2075 13.0447 22.1956 13.0029 22.1647C12.9329 22.1133 12.8606 22.0618 12.8023 21.9985C12.5969 21.7755 12.3972 21.5474 12.1955 21.3212C12.1665 21.2885 12.1381 21.2551 12.0905 21.2C12.0866 21.2613 12.0832 21.2922 12.083 21.3233C12.0825 21.5518 12.0846 21.7803 12.0818 22.0087C12.0809 22.0874 12.0994 22.1508 12.153 22.2121C12.3062 22.387 12.4535 22.567 12.6015 22.7463C12.6303 22.7811 12.6602 22.8195 12.6733 22.8614C12.6827 22.892 12.6772 22.9451 12.6568 22.9625C12.6312 22.9844 12.5811 22.9906 12.5454 22.984C12.5118 22.9778 12.4796 22.9497 12.4526 22.9247C12.3579 22.8376 12.2657 22.7477 12.1726 22.659C12.15 22.6372 12.1267 22.6162 12.0876 22.5801V23.2001C12.1973 23.2477 12.2941 23.3216 12.3389 23.4478C12.3721 23.5409 12.3766 23.6356 12.3478 23.7293C12.2964 23.8968 12.1248 24.0061 11.9405 23.9944C11.7397 23.9816 11.6116 23.8435 11.564 23.6662C11.5242 23.5176 11.5789 23.3051 11.8488 23.1969V22.4886C11.8136 22.5165 11.7914 22.5316 11.7719 22.5497C11.6596 22.6546 11.5494 22.7619 11.4353 22.8646C11.3957 22.9003 11.3504 22.9366 11.3012 22.9517C11.264 22.9634 11.2095 22.9536 11.175 22.9327C11.1277 22.9044 11.1208 22.8454 11.1459 22.7987C11.1771 22.7413 11.2157 22.685 11.2619 22.6388C11.4206 22.4803 11.58 22.3223 11.7472 22.173C11.8266 22.1023 11.8545 22.0273 11.8515 21.9234C11.8449 21.6867 11.8499 21.45 11.8502 21.2131C11.8502 21.1769 11.8502 21.1408 11.8502 21.0754C11.7948 21.1147 11.7587 21.1378 11.7253 21.1643C11.4087 21.4148 11.0755 21.6405 10.724 21.8388C10.6807 21.8633 10.6359 21.8862 10.5893 21.9029C10.5207 21.9273 10.4655 21.9109 10.4328 21.8642C10.4001 21.8175 10.4061 21.762 10.4587 21.7071C10.5017 21.6622 10.5486 21.6202 10.5989 21.5838C10.8546 21.399 11.1114 21.2156 11.3692 21.0331C11.5247 20.9228 11.6823 20.8156 11.8479 20.7007V19.5611C11.8058 19.5782 11.7678 19.5888 11.7353 19.608C11.5457 19.7196 11.3527 19.8264 11.1697 19.9481C10.8619 20.1525 10.562 20.3689 10.2558 20.5759C10.1707 20.6335 10.0758 20.6767 9.98501 20.7257C9.97061 20.7335 9.95414 20.7394 9.9379 20.7415C9.88026 20.7488 9.81668 20.7636 9.77734 20.7065C9.73915 20.6511 9.7595 20.5894 9.79815 20.545C9.8686 20.4643 9.93973 20.3803 10.025 20.3172C10.5358 19.9387 11.0556 19.5734 11.6153 19.2688C11.6477 19.2512 11.6777 19.2292 11.7175 19.2041C11.6962 19.1748 11.6793 19.148 11.659 19.1242C11.543 18.9884 11.4248 18.8544 11.3099 18.7176C11.2566 18.654 11.2066 18.5875 11.1592 18.5193C11.076 18.399 11.0776 18.3439 11.1592 18.2259C11.3291 17.9798 11.4991 17.7337 11.6688 17.4876C11.7205 17.4123 11.7767 17.3396 11.8209 17.26C11.8433 17.2195 11.8518 17.1665 11.8518 17.1194C11.8513 16.7788 11.8463 16.438 11.8442 16.0975C11.8394 15.3622 11.8355 14.6269 11.8314 13.8916C11.8307 13.7566 11.822 13.744 11.6933 13.7186C11.6407 13.7081 11.5869 13.7031 11.5274 13.6949C11.5114 13.7262 11.4945 13.7539 11.4824 13.7836C11.3751 14.0491 11.2701 14.3158 11.1613 14.5807C11.1347 14.6454 11.1318 14.7069 11.1441 14.7746C11.2173 15.1799 11.3264 15.576 11.4392 15.9712C11.4527 16.0188 11.4668 16.068 11.4682 16.1169C11.4705 16.2079 11.4103 16.2793 11.3266 16.2978C11.25 16.3147 11.17 16.277 11.1304 16.199C11.1119 16.1627 11.1014 16.1215 11.0908 16.0815C11.0268 15.8409 10.9639 15.5998 10.9001 15.359C10.8971 15.3475 10.8887 15.3377 10.8768 15.3164C10.8605 15.3455 10.8452 15.3667 10.8356 15.3905C10.7279 15.6561 10.6224 15.9223 10.5131 16.1871C10.4893 16.2448 10.487 16.2946 10.5122 16.3532C10.6327 16.6356 10.7494 16.9195 10.8669 17.2031C10.8779 17.2296 10.8891 17.2573 10.8935 17.2854C10.9056 17.3641 10.8685 17.4302 10.8011 17.4572C10.7382 17.4823 10.6675 17.4652 10.6227 17.4064C10.598 17.3739 10.5803 17.335 10.5655 17.2966C10.504 17.1379 10.445 16.9782 10.3843 16.8193C10.3683 16.777 10.35 16.7356 10.3262 16.6782C10.3048 16.7214 10.2892 16.7488 10.2773 16.7779C10.2 16.9661 10.1254 17.1553 10.0461 17.3426C10.0221 17.3995 10.0186 17.4492 10.0408 17.5089C10.117 17.7151 10.1877 17.9235 10.2586 18.1316C10.2718 18.1703 10.2819 18.2121 10.2823 18.2526C10.283 18.3203 10.2391 18.3802 10.1828 18.3969C10.1163 18.4168 10.0539 18.4008 10.0166 18.3443C9.98318 18.2938 9.96145 18.2339 9.94316 18.1753C9.91228 18.0767 9.88826 17.9763 9.83749 17.8734C9.68448 18.248 9.53147 18.6229 9.37343 19.0099C9.50151 19.1329 9.58225 19.2912 9.57379 19.4858C9.56807 19.6187 9.52622 19.7379 9.43793 19.8392C9.26182 20.0414 8.97113 20.0985 8.73533 19.9776C8.47963 19.8463 8.36802 19.586 8.44144 19.2928C8.51417 19.0023 8.72779 18.8708 9.13215 18.8724C9.27875 18.5024 9.4265 18.1298 9.58362 17.7332C9.52507 17.7561 9.48894 17.7696 9.45303 17.784C9.34531 17.8274 9.23941 17.8755 9.12963 17.9128C9.08023 17.9297 9.02259 17.9347 8.97068 17.9288C8.87668 17.9182 8.84122 17.8236 8.90572 17.7543C8.9414 17.7161 8.99035 17.6868 9.03837 17.6641C9.24467 17.5663 9.45348 17.4739 9.65932 17.3755C9.69752 17.3572 9.74326 17.3277 9.75813 17.292C9.86654 17.0318 9.96786 16.7687 10.0786 16.4886C10.0328 16.4996 10.0026 16.5041 9.97449 16.5142C9.77917 16.5842 9.58522 16.6585 9.38853 16.7244C9.303 16.753 9.21219 16.7681 9.12277 16.7827C9.07039 16.7912 9.01962 16.7731 9.00247 16.7168C8.98485 16.658 9.02465 16.6231 9.07177 16.5997C9.21654 16.5275 9.3604 16.4529 9.50792 16.3866C9.72748 16.288 9.94956 16.1949 10.1716 16.1018C10.2204 16.0815 10.2535 16.0552 10.2739 16.0032C10.4084 15.659 10.5463 15.3162 10.6826 14.9729C10.6883 14.9585 10.6892 14.9423 10.6956 14.9109C10.6556 14.9292 10.6265 14.94 10.6 14.9548C10.3468 15.0975 10.095 15.2426 9.8407 15.3834C9.75401 15.4315 9.6623 15.4715 9.57127 15.5111C9.54177 15.5239 9.50655 15.5305 9.47453 15.5289C9.38167 15.5241 9.33524 15.436 9.38899 15.3601C9.42193 15.3139 9.46835 15.2755 9.51387 15.24C9.88301 14.9537 10.2837 14.7177 10.7068 14.5219C10.8443 14.4583 10.9358 14.3794 10.9815 14.2312C11.0314 14.069 11.1009 13.9124 11.1693 13.7566C11.2088 13.6665 11.1917 13.5945 11.1265 13.5304C11.0371 13.4421 10.9367 13.3701 10.8059 13.3452C10.7841 13.3641 10.7615 13.382 10.7411 13.4021C9.95734 14.1752 9.17446 14.9491 8.38929 15.7208C8.32731 15.7819 8.28843 15.8468 8.27105 15.9317C8.20472 16.2569 8.13222 16.581 8.06566 16.9062C8.02816 17.0896 7.96641 17.1443 7.78275 17.1553C7.50944 17.1715 7.23659 17.1923 6.94452 17.2124C6.9388 17.2666 6.92828 17.3263 6.92691 17.386C6.9125 18.0049 6.90701 18.6238 6.95047 19.242C6.95687 19.3331 6.95664 19.4248 6.95756 19.516C6.95779 19.5492 6.95413 19.5826 6.94864 19.6153C6.93469 19.6997 6.89832 19.7438 6.84091 19.7495C6.78145 19.7555 6.73525 19.7235 6.7165 19.6354C6.68699 19.4977 6.66595 19.358 6.64903 19.218C6.5875 18.7094 6.59665 18.198 6.60031 17.687C6.60054 17.6417 6.60031 17.5964 6.60031 17.5336C6.56715 17.5573 6.54337 17.5699 6.52507 17.588C6.30734 17.8048 6.0912 18.0237 5.8721 18.2394C5.82956 18.2812 5.82018 18.3217 5.82155 18.3812C5.82384 18.4841 5.80348 18.5875 5.79754 18.6911C5.78107 18.9811 5.76758 19.2713 5.75179 19.5613C5.74676 19.6523 5.73875 19.7434 5.73121 19.8342C5.72938 19.8547 5.72595 19.8758 5.71932 19.8952C5.70262 19.9442 5.67792 19.9906 5.61914 19.992C5.55899 19.9933 5.53131 19.949 5.52079 19.8971C5.50936 19.8403 5.49701 19.782 5.49907 19.7251C5.51005 19.4181 5.52491 19.1112 5.53932 18.8045C5.54252 18.7359 5.54961 18.6673 5.55693 18.5717C5.51668 18.6053 5.49769 18.6188 5.48146 18.635C5.30992 18.8061 5.13953 18.9783 4.96686 19.1483C4.91677 19.1974 4.89001 19.2509 4.88498 19.3225C4.86897 19.5503 4.84793 19.7779 4.82712 20.0052C4.823 20.0505 4.81385 20.0958 4.80196 20.1397C4.78892 20.1877 4.75713 20.2202 4.70407 20.2198C4.65032 20.2193 4.61739 20.1848 4.60892 20.137C4.5952 20.0594 4.58605 19.9808 4.58308 19.9021C4.57896 19.7905 4.58193 19.6786 4.58193 19.5668C4.57278 19.5615 4.56387 19.5563 4.55472 19.5512L4.55426 19.5522ZM4.25488 15.0918C4.25168 15.2894 4.41612 15.4575 4.61487 15.4603C4.82414 15.4633 4.98492 15.3137 4.99041 15.1108C4.9959 14.9134 4.82528 14.7424 4.61876 14.738C4.40514 14.7337 4.25831 14.8764 4.25488 15.0918ZM8.90206 4.25C8.70949 4.24702 8.53955 4.4181 8.53864 4.61594C8.53772 4.82658 8.68822 4.98599 8.89086 4.98874C9.08641 4.99148 9.25794 4.81698 9.26114 4.61205C9.26434 4.40209 9.11682 4.25343 8.90206 4.25ZM15.0187 4.94528C15.2264 4.94299 15.4011 4.77535 15.3991 4.58026C15.397 4.38791 15.2236 4.22255 15.0249 4.2237C14.8248 4.22461 14.6489 4.40255 14.6539 4.59878C14.6592 4.79547 14.8191 4.94757 15.0185 4.94528H15.0187ZM19.3871 9.2558C19.6016 9.2574 19.7432 9.11538 19.7453 8.89696C19.7471 8.70209 19.5774 8.5333 19.3796 8.5333C19.171 8.5333 19.0118 8.68677 19.0104 8.88941C19.009 9.0893 19.1785 9.2542 19.3871 9.2558ZM14.7424 19.3941C14.7447 19.6061 14.8954 19.7495 15.1104 19.7443C15.2982 19.7395 15.4631 19.5698 15.4647 19.3795C15.4663 19.1686 15.3019 19.0007 15.0983 19.0055C14.9007 19.0101 14.7401 19.1855 14.7427 19.3943L14.7424 19.3941ZM4.2288 8.9738C4.2304 9.17232 4.39531 9.33997 4.59108 9.3418C4.79189 9.34386 4.95496 9.1785 4.95085 8.97701C4.94673 8.77094 4.77611 8.5962 4.58193 8.59872C4.38753 8.60146 4.2272 8.77162 4.2288 8.9738ZM8.99263 19.0483C8.78702 19.0462 8.60497 19.2098 8.59811 19.4028C8.59147 19.5878 8.76804 19.7653 8.96359 19.7701C9.1676 19.7752 9.34165 19.6086 9.34325 19.4069C9.34485 19.207 9.19161 19.0504 8.99263 19.0483ZM19.0518 15.007C19.0504 15.2133 19.2151 15.393 19.4084 15.3965C19.6 15.3997 19.7688 15.2304 19.7727 15.031C19.7766 14.8272 19.6094 14.6545 19.4077 14.6541C19.208 14.6536 19.0532 14.8073 19.052 15.0072L19.0518 15.007ZM7.95497 7.05469C7.71139 7.03044 7.47239 7.00094 7.23201 6.98905C7.22835 6.99751 7.22469 7.00574 7.22104 7.0142C7.50418 7.29598 7.78709 7.57775 8.07024 7.85929C8.07664 7.85472 8.08282 7.84992 8.08922 7.84534C8.04508 7.58461 8.00071 7.32411 7.95497 7.05446V7.05469ZM11.8419 18.9294C11.8687 18.724 11.8604 17.7886 11.8323 17.6955C11.6756 17.916 11.5229 18.1312 11.3646 18.3539C11.5208 18.5424 11.6736 18.7265 11.8419 18.9296V18.9294ZM16.0454 16.9421C16.2936 16.965 16.531 16.9867 16.7791 17.0093C16.7043 16.8916 16.0049 16.199 15.9121 16.1501C15.9564 16.414 15.9997 16.6706 16.0454 16.9421ZM6.99003 16.7569C7.27981 16.4707 7.56159 16.1928 7.84999 15.9081C7.58514 15.9529 7.3235 15.9971 7.05545 16.0426C7.03303 16.2873 7.0113 16.524 6.99003 16.7569ZM18.9356 12.1527C18.6321 12.1261 17.7896 12.1376 17.7026 12.1682C17.9213 12.3233 18.1367 12.4761 18.3574 12.6327C18.5468 12.4754 18.7307 12.3228 18.9356 12.1527ZM16.1376 8.08823C16.4175 8.04066 16.6776 7.99652 16.9452 7.95101C16.9678 7.70491 16.99 7.46591 17.0122 7.22645C16.7215 7.51302 16.4395 7.79068 16.1378 8.08823H16.1376ZM6.29087 11.8441C6.29224 11.837 6.29338 11.8302 6.29475 11.8231C6.07908 11.6703 5.86341 11.5173 5.65071 11.3666C5.44761 11.5006 5.13862 11.7705 5.10248 11.8441H6.2911H6.29087ZM12.1509 6.27958C12.1589 6.28278 12.1669 6.28599 12.1749 6.28942C12.3275 6.07489 12.48 5.86036 12.6307 5.64834C12.5056 5.45576 12.2298 5.13854 12.1509 5.0976V6.27958ZM11.4906 10.5023C11.6235 10.8209 11.7527 11.1306 11.8819 11.4405C11.9183 11.2113 11.9039 10.494 11.8792 10.4186C11.7545 10.4453 11.6306 10.4721 11.4904 10.5023H11.4906ZM13.0406 10.7987C12.9226 10.7246 12.8121 10.6553 12.6957 10.5823C12.5658 10.8982 12.4377 11.209 12.3195 11.4963C12.5505 11.273 12.794 11.0372 13.0406 10.7989V10.7987ZM11.4339 12.1206C11.4328 12.1147 11.4314 12.109 11.4302 12.103H10.4186C10.4486 12.24 10.4763 12.3674 10.5065 12.5056C10.8161 12.377 11.1251 12.2487 11.4339 12.1206ZM11.6857 12.4884C11.6782 12.4825 11.6706 12.4767 11.6631 12.4708C11.4263 12.7107 11.1896 12.9506 10.9543 13.1892C11.0764 13.2672 11.1869 13.3378 11.304 13.4126C11.4312 13.1043 11.5583 12.7963 11.6855 12.4884H11.6857ZM10.5852 11.3005C10.8969 11.4292 11.2109 11.5592 11.4984 11.6781C11.2768 11.448 11.0396 11.2021 10.8033 10.957C10.7322 11.0688 10.662 11.1793 10.5852 11.3005ZM13.5842 11.8926C13.5518 11.7506 13.5227 11.6237 13.4916 11.4887C13.1769 11.6195 12.8693 11.7476 12.5617 11.8755C12.563 11.8812 12.5644 11.8869 12.5658 11.8926H13.5842ZM12.494 12.313C12.4887 12.321 12.4832 12.329 12.478 12.337C12.7161 12.5721 12.9544 12.8075 13.1929 13.043C13.2711 12.92 13.3413 12.81 13.4161 12.6924C13.1092 12.5662 12.8016 12.4395 12.494 12.3128V12.313ZM12.5091 13.4911C12.4658 13.387 12.4235 13.285 12.3812 13.183C12.3368 13.076 12.2945 12.968 12.2477 12.8621C12.2047 12.7652 12.1765 12.6604 12.1061 12.5515V13.5791C12.2424 13.5494 12.3696 13.5215 12.5091 13.4911ZM11.5435 5.52255C11.6587 5.695 11.7664 5.8567 11.8749 6.01794C11.8813 6.02754 11.8922 6.0344 11.9018 6.0431C11.9281 5.95253 11.9339 5.22637 11.906 5.07496C11.7788 5.23209 11.6606 5.378 11.5437 5.52255H11.5435ZM5.10203 12.079C5.09883 12.0877 5.09562 12.0964 5.09242 12.1051C5.23948 12.2226 5.38654 12.3402 5.5336 12.4578C5.60336 12.4063 5.65917 12.3638 5.71657 12.3235C5.77421 12.283 5.83481 12.2471 5.89153 12.2053C5.94391 12.1666 6.01504 12.149 6.05232 12.079H5.10203ZM7.05728 7.21227C7.03715 7.26899 7.06185 7.5622 7.11605 7.74722C7.31663 7.78519 7.51859 7.82339 7.70796 7.85929C7.49046 7.64316 7.26907 7.42291 7.05728 7.2125V7.21227ZM18.4723 11.5381C18.2888 11.6639 18.1207 11.7794 17.9446 11.9002C18.0937 11.9308 18.8261 11.9267 18.9132 11.894C18.765 11.7744 18.6207 11.658 18.4723 11.5381ZM16.1373 7.70834C16.3601 7.48375 16.5826 7.25938 16.8031 7.03707C16.6282 7.05606 16.4406 7.07642 16.2535 7.09654C16.2126 7.31222 16.1742 7.51463 16.1373 7.70834ZM12.0949 17.9365C12.0679 18.1156 12.0738 18.8152 12.1038 18.9097C12.2262 18.7572 12.3439 18.6101 12.4581 18.4678C12.3339 18.2862 12.2198 18.1191 12.0946 17.9365H12.0949ZM7.86692 16.2658C7.74753 16.3436 7.22469 16.8728 7.18421 16.959C7.37724 16.9373 7.56502 16.9163 7.74753 16.8959C7.78938 16.6754 7.82758 16.4735 7.86692 16.2658ZM16.9573 16.8028C16.936 16.6176 16.9397 16.4266 16.8873 16.2466C16.6787 16.2079 16.48 16.1709 16.2812 16.1341C16.5108 16.3614 16.7336 16.5814 16.9573 16.8028ZM12.0617 0.210499C11.9629 0.213701 11.8655 0.317079 11.8664 0.417484C11.8673 0.513314 11.9645 0.603882 12.0649 0.602281C12.1703 0.60068 12.2552 0.507137 12.2527 0.395525C12.2504 0.28643 12.1685 0.207297 12.0615 0.210728L12.0617 0.210499ZM3.76772 19.9556C3.67464 19.9545 3.56371 20.0505 3.55914 20.1361C3.55365 20.2406 3.64719 20.3387 3.7524 20.3389C3.87065 20.3389 3.95549 20.2596 3.95481 20.1496C3.95412 20.0448 3.86927 19.957 3.76749 19.9556H3.76772ZM0.605102 11.9331C0.60373 11.8263 0.514075 11.7446 0.399262 11.7462C0.287194 11.7476 0.213548 11.8233 0.215835 11.9347C0.218122 12.0374 0.31395 12.1282 0.419615 12.1277C0.519791 12.1273 0.606246 12.0365 0.605102 11.9331ZM11.9377 23.7833C12.0377 23.781 12.1324 23.6809 12.1322 23.5782C12.1319 23.4798 12.0388 23.3908 11.9371 23.3918C11.8307 23.3927 11.7493 23.4826 11.7504 23.5978C11.7516 23.7062 11.8319 23.7861 11.9377 23.7835V23.7833ZM19.9598 20.228C19.9577 20.3236 20.0497 20.4325 20.1373 20.438C20.2434 20.4446 20.3374 20.3554 20.3388 20.2468C20.3401 20.1244 20.267 20.0439 20.1542 20.0441C20.0467 20.0441 19.9621 20.1244 19.9598 20.228ZM20.2379 4.03844C20.3349 4.03661 20.4373 3.94192 20.4389 3.85296C20.4408 3.74363 20.3509 3.65352 20.2429 3.65626C20.1242 3.65924 20.0428 3.73974 20.0465 3.85021C20.0501 3.95565 20.1364 4.0405 20.2379 4.03867V4.03844ZM23.5933 12.2473C23.7056 12.2494 23.7843 12.1758 23.7859 12.0671C23.7875 11.9663 23.6933 11.8702 23.5885 11.8665C23.4877 11.8629 23.4003 11.9482 23.3971 12.0532C23.3939 12.1618 23.4781 12.2453 23.5936 12.2473H23.5933ZM4.03852 3.7649C4.03966 3.66747 3.94886 3.56021 3.86149 3.55632C3.75537 3.55151 3.65954 3.64277 3.65909 3.74866C3.6584 3.86714 3.73616 3.95016 3.84709 3.94993C3.95595 3.94947 4.03715 3.87102 4.03852 3.7649ZM12.5349 12.7928C12.6207 12.9884 12.6968 13.162 12.7769 13.3442C12.8444 13.2926 12.9011 13.2491 12.9587 13.205C12.8185 13.0687 12.6854 12.9392 12.5347 12.7928H12.5349ZM10.7814 12.9433C10.9152 12.8086 11.0462 12.6766 11.178 12.544C11.0069 12.6185 10.8326 12.6947 10.6524 12.7734C10.705 12.8427 10.7468 12.8978 10.7812 12.9433H10.7814ZM11.8314 13.5309C11.8307 13.3381 11.8341 13.1562 11.8225 12.9744C11.7315 13.1185 11.6228 13.4133 11.6192 13.5032C11.6841 13.5117 11.7495 13.5201 11.8314 13.5309ZM13.222 11.0542C13.0914 11.1875 12.9617 11.3197 12.8425 11.4414C12.9971 11.3739 13.17 11.2984 13.3484 11.2207C13.2988 11.1553 13.2567 11.0999 13.222 11.0542ZM11.4639 11.198C11.3776 11.0011 11.3022 10.8291 11.2237 10.65C11.156 10.7013 11.0988 10.7445 11.0465 10.7841C11.1835 10.9199 11.315 11.0503 11.4639 11.198ZM12.9811 12.1746C12.9795 12.1812 12.9779 12.1879 12.9763 12.1947C13.1472 12.262 13.3182 12.3292 13.5019 12.4015C13.5127 12.3192 13.5218 12.2487 13.5314 12.1748H12.9811V12.1746ZM12.1747 11.0183C12.182 11.0205 12.1896 11.0226 12.1969 11.0249C12.2648 10.8511 12.3327 10.677 12.405 10.4918C12.3176 10.4822 12.2499 10.4746 12.1747 10.4664V11.0183ZM11.0231 11.819C11.0236 11.8123 11.024 11.8057 11.0247 11.7988C10.8521 11.7314 10.6796 11.6641 10.4985 11.5935C10.4873 11.674 10.4777 11.7424 10.4669 11.819H11.0231Z" fill="#2595E0"/>
</svg>
